<mxfile host="Electron" modified="2024-04-29T18:43:20.171Z" agent="Mozilla/5.0 (Windows NT 10.0; Win64; x64) AppleWebKit/537.36 (KHTML, like Gecko) draw.io/24.1.0 Chrome/120.0.6099.109 Electron/28.1.0 Safari/537.36" etag="phfkQOM6Gc28a9wAGM76" version="24.1.0" type="device">
  <diagram id="wFE0QG_FPsp0jaGvCLVb" name="Page-1">
    <mxGraphModel dx="2023" dy="1194" grid="1" gridSize="10" guides="1" tooltips="1" connect="1" arrows="1" fold="1" page="1" pageScale="1" pageWidth="850" pageHeight="1100" math="0" shadow="0">
      <root>
        <mxCell id="0" />
        <mxCell id="1" parent="0" />
        <mxCell id="QC5IBNWDDAQ8iLLi1jR3-3" value="Frontend" style="shape=umlFrame;whiteSpace=wrap;html=1;pointerEvents=0;" vertex="1" parent="1">
          <mxGeometry x="40" y="240" width="300" height="200" as="geometry" />
        </mxCell>
        <mxCell id="QC5IBNWDDAQ8iLLi1jR3-4" value="Backend" style="shape=umlFrame;whiteSpace=wrap;html=1;pointerEvents=0;" vertex="1" parent="1">
          <mxGeometry x="400" y="90" width="1040" height="550" as="geometry" />
        </mxCell>
        <mxCell id="QC5IBNWDDAQ8iLLi1jR3-5" value="«Component»&lt;br&gt;&lt;b&gt;Клиентское приложение&lt;/b&gt;" style="html=1;dropTarget=0;whiteSpace=wrap;" vertex="1" parent="1">
          <mxGeometry x="90" y="295" width="180" height="90" as="geometry" />
        </mxCell>
        <mxCell id="QC5IBNWDDAQ8iLLi1jR3-6" value="" style="shape=module;jettyWidth=8;jettyHeight=4;" vertex="1" parent="QC5IBNWDDAQ8iLLi1jR3-5">
          <mxGeometry x="1" width="20" height="20" relative="1" as="geometry">
            <mxPoint x="-27" y="7" as="offset" />
          </mxGeometry>
        </mxCell>
        <mxCell id="QC5IBNWDDAQ8iLLi1jR3-7" value="«Component»&lt;br&gt;&lt;b&gt;Сервис авторизации и аутентификации&lt;/b&gt;" style="html=1;dropTarget=0;whiteSpace=wrap;" vertex="1" parent="1">
          <mxGeometry x="470" y="140" width="180" height="90" as="geometry" />
        </mxCell>
        <mxCell id="QC5IBNWDDAQ8iLLi1jR3-8" value="" style="shape=module;jettyWidth=8;jettyHeight=4;" vertex="1" parent="QC5IBNWDDAQ8iLLi1jR3-7">
          <mxGeometry x="1" width="20" height="20" relative="1" as="geometry">
            <mxPoint x="-27" y="7" as="offset" />
          </mxGeometry>
        </mxCell>
        <mxCell id="QC5IBNWDDAQ8iLLi1jR3-9" value="«Component»&lt;br&gt;&lt;b&gt;База данных сервиса авторизации и аутентификации&lt;/b&gt;" style="html=1;dropTarget=0;whiteSpace=wrap;glass=0;rounded=0;strokeOpacity=100;arcSize=12;fillOpacity=100;overflow=visible;labelPadding=0;imageAspect=1;absoluteArcSize=0;spacingTop=0;spacingBottom=60;" vertex="1" parent="1">
          <mxGeometry x="730" y="110" width="240" height="150" as="geometry" />
        </mxCell>
        <mxCell id="QC5IBNWDDAQ8iLLi1jR3-10" value="" style="shape=module;jettyWidth=8;jettyHeight=4;" vertex="1" parent="QC5IBNWDDAQ8iLLi1jR3-9">
          <mxGeometry x="1" width="20" height="20" relative="1" as="geometry">
            <mxPoint x="-27" y="7" as="offset" />
          </mxGeometry>
        </mxCell>
        <mxCell id="QC5IBNWDDAQ8iLLi1jR3-11" value="«Component»&lt;br&gt;«File»&lt;span style=&quot;white-space: pre;&quot;&gt;&#x9;&lt;/span&gt;&lt;br&gt;&lt;b&gt;Keycloak.db&lt;/b&gt;" style="html=1;dropTarget=0;whiteSpace=wrap;imageAspect=1;" vertex="1" parent="1">
          <mxGeometry x="770" y="180" width="150" height="70" as="geometry" />
        </mxCell>
        <mxCell id="QC5IBNWDDAQ8iLLi1jR3-12" value="" style="shape=module;jettyWidth=8;jettyHeight=4;" vertex="1" parent="QC5IBNWDDAQ8iLLi1jR3-11">
          <mxGeometry x="1" width="20" height="20" relative="1" as="geometry">
            <mxPoint x="-27" y="7" as="offset" />
          </mxGeometry>
        </mxCell>
        <mxCell id="QC5IBNWDDAQ8iLLi1jR3-13" value="«Component»&lt;br&gt;«Framework»&lt;br&gt;&lt;b&gt;SpringBoot&amp;nbsp;&lt;/b&gt;" style="html=1;dropTarget=0;whiteSpace=wrap;" vertex="1" parent="1">
          <mxGeometry x="1030" y="190" width="180" height="90" as="geometry" />
        </mxCell>
        <mxCell id="QC5IBNWDDAQ8iLLi1jR3-14" value="" style="shape=module;jettyWidth=8;jettyHeight=4;" vertex="1" parent="QC5IBNWDDAQ8iLLi1jR3-13">
          <mxGeometry x="1" width="20" height="20" relative="1" as="geometry">
            <mxPoint x="-27" y="7" as="offset" />
          </mxGeometry>
        </mxCell>
        <mxCell id="QC5IBNWDDAQ8iLLi1jR3-15" value="«Component»&lt;br&gt;&lt;b&gt;KnitWit&amp;nbsp;&lt;/b&gt;" style="html=1;dropTarget=0;whiteSpace=wrap;" vertex="1" parent="1">
          <mxGeometry x="945" y="330" width="330" height="260" as="geometry" />
        </mxCell>
        <mxCell id="QC5IBNWDDAQ8iLLi1jR3-16" value="" style="shape=module;jettyWidth=8;jettyHeight=4;" vertex="1" parent="QC5IBNWDDAQ8iLLi1jR3-15">
          <mxGeometry x="1" width="20" height="20" relative="1" as="geometry">
            <mxPoint x="-27" y="7" as="offset" />
          </mxGeometry>
        </mxCell>
        <mxCell id="QC5IBNWDDAQ8iLLi1jR3-17" value="«Component»&lt;br&gt;&lt;b&gt;База данных приложения&lt;/b&gt;" style="html=1;dropTarget=0;whiteSpace=wrap;spacingTop=0;spacingBottom=60;" vertex="1" parent="1">
          <mxGeometry x="510" y="400" width="230" height="140" as="geometry" />
        </mxCell>
        <mxCell id="QC5IBNWDDAQ8iLLi1jR3-18" value="" style="shape=module;jettyWidth=8;jettyHeight=4;" vertex="1" parent="QC5IBNWDDAQ8iLLi1jR3-17">
          <mxGeometry x="1" width="20" height="20" relative="1" as="geometry">
            <mxPoint x="-27" y="7" as="offset" />
          </mxGeometry>
        </mxCell>
        <mxCell id="QC5IBNWDDAQ8iLLi1jR3-20" value="«Component»&lt;br&gt;«File»&lt;span style=&quot;white-space: pre;&quot;&gt;&#x9;&lt;/span&gt;&lt;br&gt;&lt;b&gt;KnitWit.db&lt;/b&gt;" style="html=1;dropTarget=0;whiteSpace=wrap;imageAspect=1;" vertex="1" parent="1">
          <mxGeometry x="545" y="460" width="150" height="70" as="geometry" />
        </mxCell>
        <mxCell id="QC5IBNWDDAQ8iLLi1jR3-21" value="" style="shape=module;jettyWidth=8;jettyHeight=4;" vertex="1" parent="QC5IBNWDDAQ8iLLi1jR3-20">
          <mxGeometry x="1" width="20" height="20" relative="1" as="geometry">
            <mxPoint x="-27" y="7" as="offset" />
          </mxGeometry>
        </mxCell>
        <mxCell id="QC5IBNWDDAQ8iLLi1jR3-24" value="" style="ellipse;whiteSpace=wrap;html=1;align=center;aspect=fixed;fillColor=none;strokeColor=none;resizable=0;perimeter=centerPerimeter;rotatable=0;allowArrows=0;points=[];outlineConnect=1;" vertex="1" parent="1">
          <mxGeometry x="850" y="400" width="10" height="10" as="geometry" />
        </mxCell>
        <mxCell id="QC5IBNWDDAQ8iLLi1jR3-29" value="" style="rounded=0;orthogonalLoop=1;jettySize=auto;html=1;endArrow=halfCircle;endFill=0;endSize=6;strokeWidth=1;sketch=0;exitX=0;exitY=0.5;exitDx=0;exitDy=0;edgeStyle=orthogonalEdgeStyle;" edge="1" parent="1" source="QC5IBNWDDAQ8iLLi1jR3-34">
          <mxGeometry relative="1" as="geometry">
            <mxPoint x="880" y="405" as="sourcePoint" />
            <mxPoint x="360" y="290" as="targetPoint" />
          </mxGeometry>
        </mxCell>
        <mxCell id="QC5IBNWDDAQ8iLLi1jR3-36" value="HTTPS" style="edgeLabel;html=1;align=center;verticalAlign=middle;resizable=0;points=[];" vertex="1" connectable="0" parent="QC5IBNWDDAQ8iLLi1jR3-29">
          <mxGeometry x="-0.8783" y="1" relative="1" as="geometry">
            <mxPoint x="-7" y="9" as="offset" />
          </mxGeometry>
        </mxCell>
        <mxCell id="QC5IBNWDDAQ8iLLi1jR3-30" value="" style="rounded=0;orthogonalLoop=1;jettySize=auto;html=1;endArrow=oval;endFill=0;sketch=0;sourcePerimeterSpacing=0;targetPerimeterSpacing=0;endSize=10;exitX=1.006;exitY=0.422;exitDx=0;exitDy=0;exitPerimeter=0;edgeStyle=orthogonalEdgeStyle;" edge="1" parent="1" source="QC5IBNWDDAQ8iLLi1jR3-40">
          <mxGeometry relative="1" as="geometry">
            <mxPoint x="840" y="405" as="sourcePoint" />
            <mxPoint x="360" y="290" as="targetPoint" />
          </mxGeometry>
        </mxCell>
        <mxCell id="QC5IBNWDDAQ8iLLi1jR3-47" value="Autentification Flow" style="edgeLabel;html=1;align=center;verticalAlign=middle;resizable=0;points=[];" vertex="1" connectable="0" parent="QC5IBNWDDAQ8iLLi1jR3-30">
          <mxGeometry x="1" y="-9" relative="1" as="geometry">
            <mxPoint x="-59" y="-80" as="offset" />
          </mxGeometry>
        </mxCell>
        <mxCell id="QC5IBNWDDAQ8iLLi1jR3-31" value="" style="ellipse;whiteSpace=wrap;html=1;align=center;aspect=fixed;fillColor=none;strokeColor=none;resizable=0;perimeter=centerPerimeter;rotatable=0;allowArrows=0;points=[];outlineConnect=1;" vertex="1" parent="1">
          <mxGeometry x="855" y="400" width="10" height="10" as="geometry" />
        </mxCell>
        <mxCell id="QC5IBNWDDAQ8iLLi1jR3-32" value="" style="rounded=0;orthogonalLoop=1;jettySize=auto;html=1;endArrow=oval;endFill=0;sketch=0;sourcePerimeterSpacing=0;targetPerimeterSpacing=0;endSize=10;edgeStyle=orthogonalEdgeStyle;" edge="1" parent="1" source="QC5IBNWDDAQ8iLLi1jR3-42">
          <mxGeometry relative="1" as="geometry">
            <mxPoint x="270" y="360" as="sourcePoint" />
            <mxPoint x="380" y="360" as="targetPoint" />
            <Array as="points">
              <mxPoint x="270" y="360" />
            </Array>
          </mxGeometry>
        </mxCell>
        <mxCell id="QC5IBNWDDAQ8iLLi1jR3-33" value="" style="rounded=0;orthogonalLoop=1;jettySize=auto;html=1;endArrow=halfCircle;endFill=0;endSize=6;strokeWidth=1;sketch=0;edgeStyle=orthogonalEdgeStyle;" edge="1" parent="1" source="QC5IBNWDDAQ8iLLi1jR3-37">
          <mxGeometry relative="1" as="geometry">
            <mxPoint x="945" y="360" as="sourcePoint" />
            <mxPoint x="380" y="360" as="targetPoint" />
            <Array as="points">
              <mxPoint x="945" y="360" />
              <mxPoint x="663" y="360" />
              <mxPoint x="380" y="361" />
            </Array>
          </mxGeometry>
        </mxCell>
        <mxCell id="QC5IBNWDDAQ8iLLi1jR3-46" value="REST API" style="edgeLabel;html=1;align=center;verticalAlign=middle;resizable=0;points=[];" vertex="1" connectable="0" parent="QC5IBNWDDAQ8iLLi1jR3-33">
          <mxGeometry x="0.9892" y="3" relative="1" as="geometry">
            <mxPoint x="-13" y="17" as="offset" />
          </mxGeometry>
        </mxCell>
        <mxCell id="QC5IBNWDDAQ8iLLi1jR3-34" value="" style="html=1;whiteSpace=wrap;" vertex="1" parent="1">
          <mxGeometry x="460" y="170" width="10" height="20" as="geometry" />
        </mxCell>
        <mxCell id="QC5IBNWDDAQ8iLLi1jR3-37" value="" style="html=1;whiteSpace=wrap;" vertex="1" parent="1">
          <mxGeometry x="935" y="350" width="10" height="20" as="geometry" />
        </mxCell>
        <mxCell id="QC5IBNWDDAQ8iLLi1jR3-39" value="HTTPS" style="edgeLabel;html=1;align=center;verticalAlign=middle;resizable=0;points=[];" vertex="1" connectable="0" parent="1">
          <mxGeometry x="910" y="349.9999999999999" as="geometry" />
        </mxCell>
        <mxCell id="QC5IBNWDDAQ8iLLi1jR3-40" value="" style="html=1;whiteSpace=wrap;" vertex="1" parent="1">
          <mxGeometry x="270" y="320" width="10" height="20" as="geometry" />
        </mxCell>
        <mxCell id="QC5IBNWDDAQ8iLLi1jR3-42" value="" style="html=1;whiteSpace=wrap;" vertex="1" parent="1">
          <mxGeometry x="270" y="350" width="10" height="20" as="geometry" />
        </mxCell>
        <mxCell id="QC5IBNWDDAQ8iLLi1jR3-44" value="HTTPS" style="edgeLabel;html=1;align=center;verticalAlign=middle;resizable=0;points=[];" vertex="1" connectable="0" parent="1">
          <mxGeometry x="299.995861021854" y="309.99569706562625" as="geometry" />
        </mxCell>
        <mxCell id="QC5IBNWDDAQ8iLLi1jR3-45" value="HTTPS" style="edgeLabel;html=1;align=center;verticalAlign=middle;resizable=0;points=[];" vertex="1" connectable="0" parent="1">
          <mxGeometry x="299.995861021854" y="379.99569706562625" as="geometry" />
        </mxCell>
        <mxCell id="QC5IBNWDDAQ8iLLi1jR3-56" style="edgeStyle=orthogonalEdgeStyle;rounded=0;orthogonalLoop=1;jettySize=auto;html=1;entryX=0.5;entryY=0;entryDx=0;entryDy=0;endArrow=diamondThin;endFill=0;startSize=6;endSize=16;" edge="1" parent="1" source="QC5IBNWDDAQ8iLLi1jR3-48" target="QC5IBNWDDAQ8iLLi1jR3-55">
          <mxGeometry relative="1" as="geometry">
            <Array as="points">
              <mxPoint x="560" y="280" />
              <mxPoint x="975" y="280" />
            </Array>
          </mxGeometry>
        </mxCell>
        <mxCell id="QC5IBNWDDAQ8iLLi1jR3-48" value="" style="html=1;whiteSpace=wrap;" vertex="1" parent="1">
          <mxGeometry x="550" y="230" width="20" height="10" as="geometry" />
        </mxCell>
        <mxCell id="QC5IBNWDDAQ8iLLi1jR3-49" value="" style="html=1;whiteSpace=wrap;" vertex="1" parent="1">
          <mxGeometry x="650" y="170" width="10" height="20" as="geometry" />
        </mxCell>
        <mxCell id="QC5IBNWDDAQ8iLLi1jR3-50" value="" style="html=1;whiteSpace=wrap;" vertex="1" parent="1">
          <mxGeometry x="720" y="170" width="10" height="20" as="geometry" />
        </mxCell>
        <mxCell id="QC5IBNWDDAQ8iLLi1jR3-51" value="" style="html=1;whiteSpace=wrap;" vertex="1" parent="1">
          <mxGeometry x="970" y="170" width="10" height="20" as="geometry" />
        </mxCell>
        <mxCell id="QC5IBNWDDAQ8iLLi1jR3-52" value="" style="html=1;whiteSpace=wrap;" vertex="1" parent="1">
          <mxGeometry x="1270" y="440" width="10" height="20" as="geometry" />
        </mxCell>
        <mxCell id="QC5IBNWDDAQ8iLLi1jR3-53" value="" style="html=1;whiteSpace=wrap;" vertex="1" parent="1">
          <mxGeometry x="740" y="480" width="10" height="20" as="geometry" />
        </mxCell>
        <mxCell id="QC5IBNWDDAQ8iLLi1jR3-54" value="" style="html=1;whiteSpace=wrap;" vertex="1" parent="1">
          <mxGeometry x="935" y="480" width="10" height="20" as="geometry" />
        </mxCell>
        <mxCell id="QC5IBNWDDAQ8iLLi1jR3-55" value="" style="html=1;whiteSpace=wrap;" vertex="1" parent="1">
          <mxGeometry x="960" y="325" width="30" height="10" as="geometry" />
        </mxCell>
        <mxCell id="QC5IBNWDDAQ8iLLi1jR3-57" value="" style="rounded=0;orthogonalLoop=1;jettySize=auto;html=1;endArrow=oval;endFill=0;sketch=0;sourcePerimeterSpacing=0;targetPerimeterSpacing=0;endSize=10;edgeStyle=orthogonalEdgeStyle;" edge="1" parent="1">
          <mxGeometry relative="1" as="geometry">
            <mxPoint x="670" y="179.64" as="sourcePoint" />
            <mxPoint x="690" y="180" as="targetPoint" />
            <Array as="points">
              <mxPoint x="660" y="179.64" />
            </Array>
          </mxGeometry>
        </mxCell>
        <mxCell id="QC5IBNWDDAQ8iLLi1jR3-58" value="" style="rounded=0;orthogonalLoop=1;jettySize=auto;html=1;endArrow=halfCircle;endFill=0;endSize=6;strokeWidth=1;sketch=0;edgeStyle=orthogonalEdgeStyle;" edge="1" parent="1">
          <mxGeometry relative="1" as="geometry">
            <mxPoint x="700" y="180" as="sourcePoint" />
            <mxPoint x="690" y="180" as="targetPoint" />
            <Array as="points">
              <mxPoint x="720" y="179.82999999999998" />
              <mxPoint x="720" y="179.82999999999998" />
            </Array>
          </mxGeometry>
        </mxCell>
        <mxCell id="QC5IBNWDDAQ8iLLi1jR3-59" value="Запрос данных&lt;br&gt;&amp;nbsp;пользователя" style="edgeLabel;html=1;align=center;verticalAlign=middle;resizable=0;points=[];" vertex="1" connectable="0" parent="QC5IBNWDDAQ8iLLi1jR3-58">
          <mxGeometry x="0.9892" y="3" relative="1" as="geometry">
            <mxPoint y="27" as="offset" />
          </mxGeometry>
        </mxCell>
        <mxCell id="QC5IBNWDDAQ8iLLi1jR3-60" value="" style="rounded=0;orthogonalLoop=1;jettySize=auto;html=1;endArrow=oval;endFill=0;sketch=0;sourcePerimeterSpacing=0;targetPerimeterSpacing=0;endSize=10;edgeStyle=orthogonalEdgeStyle;" edge="1" parent="1">
          <mxGeometry relative="1" as="geometry">
            <mxPoint x="990" y="179.83999999999997" as="sourcePoint" />
            <mxPoint x="1010" y="180" as="targetPoint" />
            <Array as="points">
              <mxPoint x="980" y="179.83999999999997" />
            </Array>
          </mxGeometry>
        </mxCell>
        <mxCell id="QC5IBNWDDAQ8iLLi1jR3-63" value="" style="rounded=0;orthogonalLoop=1;jettySize=auto;html=1;endArrow=halfCircle;endFill=0;endSize=6;strokeWidth=1;sketch=0;fontSize=12;exitX=1;exitY=0.5;exitDx=0;exitDy=0;edgeStyle=orthogonalEdgeStyle;" edge="1" parent="1" source="QC5IBNWDDAQ8iLLi1jR3-52">
          <mxGeometry relative="1" as="geometry">
            <mxPoint x="1155" y="345" as="sourcePoint" />
            <mxPoint x="1010" y="180" as="targetPoint" />
            <Array as="points">
              <mxPoint x="1300" y="450" />
              <mxPoint x="1300" y="180" />
            </Array>
          </mxGeometry>
        </mxCell>
        <mxCell id="QC5IBNWDDAQ8iLLi1jR3-65" value="Синхронизация" style="edgeLabel;html=1;align=center;verticalAlign=middle;resizable=0;points=[];" vertex="1" connectable="0" parent="QC5IBNWDDAQ8iLLi1jR3-63">
          <mxGeometry x="0.9875" y="-3" relative="1" as="geometry">
            <mxPoint x="16" y="-17" as="offset" />
          </mxGeometry>
        </mxCell>
        <mxCell id="QC5IBNWDDAQ8iLLi1jR3-64" value="" style="ellipse;whiteSpace=wrap;html=1;align=center;aspect=fixed;fillColor=none;strokeColor=none;resizable=0;perimeter=centerPerimeter;rotatable=0;allowArrows=0;points=[];outlineConnect=1;" vertex="1" parent="1">
          <mxGeometry x="1130" y="340" width="10" height="10" as="geometry" />
        </mxCell>
        <mxCell id="QC5IBNWDDAQ8iLLi1jR3-66" style="edgeStyle=orthogonalEdgeStyle;rounded=0;orthogonalLoop=1;jettySize=auto;html=1;entryX=0.441;entryY=1.022;entryDx=0;entryDy=0;entryPerimeter=0;dashed=1;endArrow=open;endFill=0;" edge="1" parent="1" source="QC5IBNWDDAQ8iLLi1jR3-15" target="QC5IBNWDDAQ8iLLi1jR3-13">
          <mxGeometry relative="1" as="geometry" />
        </mxCell>
        <mxCell id="QC5IBNWDDAQ8iLLi1jR3-68" value="" style="rounded=0;orthogonalLoop=1;jettySize=auto;html=1;endArrow=halfCircle;endFill=0;endSize=6;strokeWidth=1;sketch=0;exitX=0;exitY=0.5;exitDx=0;exitDy=0;" edge="1" target="QC5IBNWDDAQ8iLLi1jR3-70" parent="1" source="QC5IBNWDDAQ8iLLi1jR3-54">
          <mxGeometry relative="1" as="geometry">
            <mxPoint x="850" y="490" as="sourcePoint" />
          </mxGeometry>
        </mxCell>
        <mxCell id="QC5IBNWDDAQ8iLLi1jR3-71" value="Запрос данных" style="edgeLabel;html=1;align=center;verticalAlign=middle;resizable=0;points=[];" vertex="1" connectable="0" parent="QC5IBNWDDAQ8iLLi1jR3-68">
          <mxGeometry x="0.5556" relative="1" as="geometry">
            <mxPoint x="-8" y="-20" as="offset" />
          </mxGeometry>
        </mxCell>
        <mxCell id="QC5IBNWDDAQ8iLLi1jR3-69" value="" style="rounded=0;orthogonalLoop=1;jettySize=auto;html=1;endArrow=oval;endFill=0;sketch=0;sourcePerimeterSpacing=0;targetPerimeterSpacing=0;endSize=10;exitX=1;exitY=0.5;exitDx=0;exitDy=0;" edge="1" target="QC5IBNWDDAQ8iLLi1jR3-70" parent="1" source="QC5IBNWDDAQ8iLLi1jR3-53">
          <mxGeometry relative="1" as="geometry">
            <mxPoint x="810" y="490" as="sourcePoint" />
          </mxGeometry>
        </mxCell>
        <mxCell id="QC5IBNWDDAQ8iLLi1jR3-70" value="" style="ellipse;whiteSpace=wrap;html=1;align=center;aspect=fixed;fillColor=none;strokeColor=none;resizable=0;perimeter=centerPerimeter;rotatable=0;allowArrows=0;points=[];outlineConnect=1;" vertex="1" parent="1">
          <mxGeometry x="825" y="485" width="10" height="10" as="geometry" />
        </mxCell>
      </root>
    </mxGraphModel>
  </diagram>
</mxfile>
